%TF.GenerationSoftware,KiCad,Pcbnew,9.0.6*%
%TF.CreationDate,2026-03-16T18:22:33-07:00*%
%TF.ProjectId,pro2,70726f32-2e6b-4696-9361-645f70636258,rev?*%
%TF.SameCoordinates,Original*%
%TF.FileFunction,Legend,Bot*%
%TF.FilePolarity,Positive*%
%FSLAX46Y46*%
G04 Gerber Fmt 4.6, Leading zero omitted, Abs format (unit mm)*
G04 Created by KiCad (PCBNEW 9.0.6) date 2026-03-16 18:22:33*
%MOMM*%
%LPD*%
G01*
G04 APERTURE LIST*
%ADD10C,0.101600*%
%ADD11C,0.150000*%
%ADD12C,0.025400*%
%ADD13C,0.254000*%
%ADD14C,0.120000*%
%ADD15C,0.127000*%
G04 APERTURE END LIST*
D10*
X81302333Y-101936985D02*
X81302333Y-102656652D01*
X81302333Y-102656652D02*
X81260000Y-102741318D01*
X81260000Y-102741318D02*
X81217666Y-102783652D01*
X81217666Y-102783652D02*
X81133000Y-102825985D01*
X81133000Y-102825985D02*
X80963666Y-102825985D01*
X80963666Y-102825985D02*
X80879000Y-102783652D01*
X80879000Y-102783652D02*
X80836666Y-102741318D01*
X80836666Y-102741318D02*
X80794333Y-102656652D01*
X80794333Y-102656652D02*
X80794333Y-101936985D01*
X79905333Y-102825985D02*
X80413333Y-102825985D01*
X80159333Y-102825985D02*
X80159333Y-101936985D01*
X80159333Y-101936985D02*
X80244000Y-102063985D01*
X80244000Y-102063985D02*
X80328667Y-102148652D01*
X80328667Y-102148652D02*
X80413333Y-102190985D01*
D11*
X82148808Y-99834819D02*
X81482142Y-100834819D01*
X81482142Y-99834819D02*
X82148808Y-100834819D01*
X81101189Y-100834819D02*
X81101189Y-99834819D01*
X80672618Y-100549104D02*
X80196428Y-100549104D01*
X80767856Y-100834819D02*
X80434523Y-99834819D01*
X80434523Y-99834819D02*
X80101190Y-100834819D01*
X79577380Y-99834819D02*
X79386904Y-99834819D01*
X79386904Y-99834819D02*
X79291666Y-99882438D01*
X79291666Y-99882438D02*
X79196428Y-99977676D01*
X79196428Y-99977676D02*
X79148809Y-100168152D01*
X79148809Y-100168152D02*
X79148809Y-100501485D01*
X79148809Y-100501485D02*
X79196428Y-100691961D01*
X79196428Y-100691961D02*
X79291666Y-100787200D01*
X79291666Y-100787200D02*
X79386904Y-100834819D01*
X79386904Y-100834819D02*
X79577380Y-100834819D01*
X79577380Y-100834819D02*
X79672618Y-100787200D01*
X79672618Y-100787200D02*
X79767856Y-100691961D01*
X79767856Y-100691961D02*
X79815475Y-100501485D01*
X79815475Y-100501485D02*
X79815475Y-100168152D01*
X79815475Y-100168152D02*
X79767856Y-99977676D01*
X79767856Y-99977676D02*
X79672618Y-99882438D01*
X79672618Y-99882438D02*
X79577380Y-99834819D01*
X85386904Y-98787200D02*
X85244047Y-98834819D01*
X85244047Y-98834819D02*
X85005952Y-98834819D01*
X85005952Y-98834819D02*
X84910714Y-98787200D01*
X84910714Y-98787200D02*
X84863095Y-98739580D01*
X84863095Y-98739580D02*
X84815476Y-98644342D01*
X84815476Y-98644342D02*
X84815476Y-98549104D01*
X84815476Y-98549104D02*
X84863095Y-98453866D01*
X84863095Y-98453866D02*
X84910714Y-98406247D01*
X84910714Y-98406247D02*
X85005952Y-98358628D01*
X85005952Y-98358628D02*
X85196428Y-98311009D01*
X85196428Y-98311009D02*
X85291666Y-98263390D01*
X85291666Y-98263390D02*
X85339285Y-98215771D01*
X85339285Y-98215771D02*
X85386904Y-98120533D01*
X85386904Y-98120533D02*
X85386904Y-98025295D01*
X85386904Y-98025295D02*
X85339285Y-97930057D01*
X85339285Y-97930057D02*
X85291666Y-97882438D01*
X85291666Y-97882438D02*
X85196428Y-97834819D01*
X85196428Y-97834819D02*
X84958333Y-97834819D01*
X84958333Y-97834819D02*
X84815476Y-97882438D01*
X84005952Y-98787200D02*
X84101190Y-98834819D01*
X84101190Y-98834819D02*
X84291666Y-98834819D01*
X84291666Y-98834819D02*
X84386904Y-98787200D01*
X84386904Y-98787200D02*
X84434523Y-98691961D01*
X84434523Y-98691961D02*
X84434523Y-98311009D01*
X84434523Y-98311009D02*
X84386904Y-98215771D01*
X84386904Y-98215771D02*
X84291666Y-98168152D01*
X84291666Y-98168152D02*
X84101190Y-98168152D01*
X84101190Y-98168152D02*
X84005952Y-98215771D01*
X84005952Y-98215771D02*
X83958333Y-98311009D01*
X83958333Y-98311009D02*
X83958333Y-98406247D01*
X83958333Y-98406247D02*
X84434523Y-98501485D01*
X83148809Y-98787200D02*
X83244047Y-98834819D01*
X83244047Y-98834819D02*
X83434523Y-98834819D01*
X83434523Y-98834819D02*
X83529761Y-98787200D01*
X83529761Y-98787200D02*
X83577380Y-98691961D01*
X83577380Y-98691961D02*
X83577380Y-98311009D01*
X83577380Y-98311009D02*
X83529761Y-98215771D01*
X83529761Y-98215771D02*
X83434523Y-98168152D01*
X83434523Y-98168152D02*
X83244047Y-98168152D01*
X83244047Y-98168152D02*
X83148809Y-98215771D01*
X83148809Y-98215771D02*
X83101190Y-98311009D01*
X83101190Y-98311009D02*
X83101190Y-98406247D01*
X83101190Y-98406247D02*
X83577380Y-98501485D01*
X82291666Y-98787200D02*
X82386904Y-98834819D01*
X82386904Y-98834819D02*
X82577380Y-98834819D01*
X82577380Y-98834819D02*
X82672618Y-98787200D01*
X82672618Y-98787200D02*
X82720237Y-98691961D01*
X82720237Y-98691961D02*
X82720237Y-98311009D01*
X82720237Y-98311009D02*
X82672618Y-98215771D01*
X82672618Y-98215771D02*
X82577380Y-98168152D01*
X82577380Y-98168152D02*
X82386904Y-98168152D01*
X82386904Y-98168152D02*
X82291666Y-98215771D01*
X82291666Y-98215771D02*
X82244047Y-98311009D01*
X82244047Y-98311009D02*
X82244047Y-98406247D01*
X82244047Y-98406247D02*
X82720237Y-98501485D01*
X81386904Y-98834819D02*
X81386904Y-97834819D01*
X81386904Y-98787200D02*
X81482142Y-98834819D01*
X81482142Y-98834819D02*
X81672618Y-98834819D01*
X81672618Y-98834819D02*
X81767856Y-98787200D01*
X81767856Y-98787200D02*
X81815475Y-98739580D01*
X81815475Y-98739580D02*
X81863094Y-98644342D01*
X81863094Y-98644342D02*
X81863094Y-98358628D01*
X81863094Y-98358628D02*
X81815475Y-98263390D01*
X81815475Y-98263390D02*
X81767856Y-98215771D01*
X81767856Y-98215771D02*
X81672618Y-98168152D01*
X81672618Y-98168152D02*
X81482142Y-98168152D01*
X81482142Y-98168152D02*
X81386904Y-98215771D01*
X80196427Y-98787200D02*
X80053570Y-98834819D01*
X80053570Y-98834819D02*
X79815475Y-98834819D01*
X79815475Y-98834819D02*
X79720237Y-98787200D01*
X79720237Y-98787200D02*
X79672618Y-98739580D01*
X79672618Y-98739580D02*
X79624999Y-98644342D01*
X79624999Y-98644342D02*
X79624999Y-98549104D01*
X79624999Y-98549104D02*
X79672618Y-98453866D01*
X79672618Y-98453866D02*
X79720237Y-98406247D01*
X79720237Y-98406247D02*
X79815475Y-98358628D01*
X79815475Y-98358628D02*
X80005951Y-98311009D01*
X80005951Y-98311009D02*
X80101189Y-98263390D01*
X80101189Y-98263390D02*
X80148808Y-98215771D01*
X80148808Y-98215771D02*
X80196427Y-98120533D01*
X80196427Y-98120533D02*
X80196427Y-98025295D01*
X80196427Y-98025295D02*
X80148808Y-97930057D01*
X80148808Y-97930057D02*
X80101189Y-97882438D01*
X80101189Y-97882438D02*
X80005951Y-97834819D01*
X80005951Y-97834819D02*
X79767856Y-97834819D01*
X79767856Y-97834819D02*
X79624999Y-97882438D01*
X79339284Y-98168152D02*
X78958332Y-98168152D01*
X79196427Y-97834819D02*
X79196427Y-98691961D01*
X79196427Y-98691961D02*
X79148808Y-98787200D01*
X79148808Y-98787200D02*
X79053570Y-98834819D01*
X79053570Y-98834819D02*
X78958332Y-98834819D01*
X78196427Y-98168152D02*
X78196427Y-98834819D01*
X78624998Y-98168152D02*
X78624998Y-98691961D01*
X78624998Y-98691961D02*
X78577379Y-98787200D01*
X78577379Y-98787200D02*
X78482141Y-98834819D01*
X78482141Y-98834819D02*
X78339284Y-98834819D01*
X78339284Y-98834819D02*
X78244046Y-98787200D01*
X78244046Y-98787200D02*
X78196427Y-98739580D01*
X77291665Y-98834819D02*
X77291665Y-97834819D01*
X77291665Y-98787200D02*
X77386903Y-98834819D01*
X77386903Y-98834819D02*
X77577379Y-98834819D01*
X77577379Y-98834819D02*
X77672617Y-98787200D01*
X77672617Y-98787200D02*
X77720236Y-98739580D01*
X77720236Y-98739580D02*
X77767855Y-98644342D01*
X77767855Y-98644342D02*
X77767855Y-98358628D01*
X77767855Y-98358628D02*
X77720236Y-98263390D01*
X77720236Y-98263390D02*
X77672617Y-98215771D01*
X77672617Y-98215771D02*
X77577379Y-98168152D01*
X77577379Y-98168152D02*
X77386903Y-98168152D01*
X77386903Y-98168152D02*
X77291665Y-98215771D01*
X76815474Y-98834819D02*
X76815474Y-98168152D01*
X76815474Y-97834819D02*
X76863093Y-97882438D01*
X76863093Y-97882438D02*
X76815474Y-97930057D01*
X76815474Y-97930057D02*
X76767855Y-97882438D01*
X76767855Y-97882438D02*
X76815474Y-97834819D01*
X76815474Y-97834819D02*
X76815474Y-97930057D01*
X76196427Y-98834819D02*
X76291665Y-98787200D01*
X76291665Y-98787200D02*
X76339284Y-98739580D01*
X76339284Y-98739580D02*
X76386903Y-98644342D01*
X76386903Y-98644342D02*
X76386903Y-98358628D01*
X76386903Y-98358628D02*
X76339284Y-98263390D01*
X76339284Y-98263390D02*
X76291665Y-98215771D01*
X76291665Y-98215771D02*
X76196427Y-98168152D01*
X76196427Y-98168152D02*
X76053570Y-98168152D01*
X76053570Y-98168152D02*
X75958332Y-98215771D01*
X75958332Y-98215771D02*
X75910713Y-98263390D01*
X75910713Y-98263390D02*
X75863094Y-98358628D01*
X75863094Y-98358628D02*
X75863094Y-98644342D01*
X75863094Y-98644342D02*
X75910713Y-98739580D01*
X75910713Y-98739580D02*
X75958332Y-98787200D01*
X75958332Y-98787200D02*
X76053570Y-98834819D01*
X76053570Y-98834819D02*
X76196427Y-98834819D01*
D12*
%TO.C,U1*%
X71782752Y-108790955D02*
X71772847Y-108742950D01*
X71763956Y-108694690D01*
X71756336Y-108646175D01*
X71749732Y-108597407D01*
X71744399Y-108548639D01*
X71740335Y-108499618D01*
X71737287Y-108450850D01*
X71735508Y-108401574D01*
X71782752Y-108790955D01*
X89509667Y-91269527D02*
X89512715Y-91318295D01*
X89505603Y-91220506D01*
X89509667Y-91269527D01*
D13*
X91752000Y-91080000D02*
G75*
G02*
X91498000Y-91080000I-127000J0D01*
G01*
X91498000Y-91080000D02*
G75*
G02*
X91752000Y-91080000I127000J0D01*
G01*
D14*
X89525000Y-108380000D02*
G75*
G02*
X87525000Y-110380000I-2044857J44857D01*
G01*
X87525000Y-89380000D02*
G75*
G02*
X89525000Y-91380000I-44612J-2044612D01*
G01*
X73725000Y-110380000D02*
G75*
G02*
X71725000Y-108380000I0J2000000D01*
G01*
X71725000Y-91380000D02*
G75*
G02*
X73725000Y-89380000I2044610J-44610D01*
G01*
D15*
X89525000Y-91380000D02*
X89525000Y-108380000D01*
X87525000Y-110380000D02*
X73725000Y-110380000D01*
X85125000Y-95309270D02*
X85125000Y-87955970D01*
X85125000Y-87955970D02*
X76125000Y-87955970D01*
X76125000Y-95309270D02*
X85125000Y-95309270D01*
X76125000Y-87955970D02*
X76125000Y-95309270D01*
X73725000Y-89380910D02*
X87525000Y-89380910D01*
X71725000Y-108380000D02*
X71725000Y-91380000D01*
%TD*%
M02*
