%TF.GenerationSoftware,KiCad,Pcbnew,9.0.6*%
%TF.CreationDate,2026-03-16T18:22:32-07:00*%
%TF.ProjectId,pro2,70726f32-2e6b-4696-9361-645f70636258,rev?*%
%TF.SameCoordinates,Original*%
%TF.FileFunction,Copper,L1,Top*%
%TF.FilePolarity,Positive*%
%FSLAX46Y46*%
G04 Gerber Fmt 4.6, Leading zero omitted, Abs format (unit mm)*
G04 Created by KiCad (PCBNEW 9.0.6) date 2026-03-16 18:22:32*
%MOMM*%
%LPD*%
G01*
G04 APERTURE LIST*
%TA.AperFunction,ComponentPad*%
%ADD10C,2.200000*%
%TD*%
%TA.AperFunction,ComponentPad*%
%ADD11O,1.700000X1.700000*%
%TD*%
%TA.AperFunction,ComponentPad*%
%ADD12R,1.700000X1.700000*%
%TD*%
%TA.AperFunction,ComponentPad*%
%ADD13O,3.700000X1.700000*%
%TD*%
%TA.AperFunction,ComponentPad*%
%ADD14O,3.600000X1.700000*%
%TD*%
%TA.AperFunction,ComponentPad*%
%ADD15R,3.500000X1.700000*%
%TD*%
%TA.AperFunction,Conductor*%
%ADD16C,0.200000*%
%TD*%
G04 APERTURE END LIST*
D10*
%TO.P,SW2,1,1*%
%TO.N,Net-(U1-PA5_A9_D9_MISO)*%
X120540000Y-115420000D03*
%TO.P,SW2,2,2*%
%TO.N,GND*%
X114190000Y-117960000D03*
%TD*%
%TO.P,SW4,1,1*%
%TO.N,Net-(U1-PB09_A7_D7_RX)*%
X101540000Y-134420000D03*
%TO.P,SW4,2,2*%
%TO.N,GND*%
X95190000Y-136960000D03*
%TD*%
%TO.P,SW5,1,1*%
%TO.N,Net-(U1-PB08_A6_D6_TX)*%
X120540000Y-134420000D03*
%TO.P,SW5,2,2*%
%TO.N,GND*%
X114190000Y-136960000D03*
%TD*%
%TO.P,SW3,1,1*%
%TO.N,Net-(U1-PA7_A8_D8_SCK)*%
X82540000Y-134420000D03*
%TO.P,SW3,2,2*%
%TO.N,GND*%
X76190000Y-136960000D03*
%TD*%
D11*
%TO.P,J1,4,Pin_4*%
%TO.N,Net-(J1-Pin_4)*%
X127000000Y-102310000D03*
%TO.P,J1,3,Pin_3*%
%TO.N,Net-(J1-Pin_3)*%
X127000000Y-99770000D03*
%TO.P,J1,2,Pin_2*%
%TO.N,Net-(J1-Pin_2)*%
X127000000Y-97230000D03*
D12*
%TO.P,J1,1,Pin_1*%
%TO.N,GND*%
X127000000Y-94690000D03*
%TD*%
D13*
%TO.P,U1,14,5V*%
%TO.N,unconnected-(U1-5V-Pad14)*%
X72000000Y-92260000D03*
%TO.P,U1,13,GND*%
%TO.N,GND*%
X72000000Y-94800000D03*
%TO.P,U1,12,3V3*%
%TO.N,Net-(J1-Pin_2)*%
X72000000Y-97340000D03*
%TO.P,U1,11,PA6_A10_D10_MOSI*%
%TO.N,Net-(U1-PA6_A10_D10_MOSI)*%
X72000000Y-99880000D03*
D14*
%TO.P,U1,10,PA5_A9_D9_MISO*%
%TO.N,Net-(U1-PA5_A9_D9_MISO)*%
X72000000Y-102420000D03*
%TO.P,U1,9,PA7_A8_D8_SCK*%
%TO.N,Net-(U1-PA7_A8_D8_SCK)*%
X72000000Y-104960000D03*
%TO.P,U1,8,PB09_A7_D7_RX*%
%TO.N,Net-(U1-PB09_A7_D7_RX)*%
X72000000Y-107500000D03*
%TO.P,U1,7,PB08_A6_D6_TX*%
%TO.N,Net-(U1-PB08_A6_D6_TX)*%
X89250000Y-107500000D03*
%TO.P,U1,6,PA9_A5_D5_SCL*%
%TO.N,Net-(J1-Pin_3)*%
X89250000Y-104960000D03*
%TO.P,U1,5,PA8_A4_D4_SDA*%
%TO.N,Net-(J1-Pin_4)*%
X89250000Y-102420000D03*
%TO.P,U1,4,PA11_A3_D3*%
%TO.N,unconnected-(U1-PA11_A3_D3-Pad4)*%
X89250000Y-99880000D03*
%TO.P,U1,3,PA10_A2_D2*%
%TO.N,unconnected-(U1-PA10_A2_D2-Pad3)*%
X89250000Y-97340000D03*
%TO.P,U1,2,PA4_A1_D1*%
%TO.N,unconnected-(U1-PA4_A1_D1-Pad2)*%
X89250000Y-94800000D03*
D15*
%TO.P,U1,1,PA02_A0_D0*%
%TO.N,unconnected-(U1-PA02_A0_D0-Pad1)*%
X89250000Y-92260000D03*
%TD*%
D10*
%TO.P,SW1,2,2*%
%TO.N,GND*%
X95190000Y-117960000D03*
%TO.P,SW1,1,1*%
%TO.N,Net-(U1-PA6_A10_D10_MOSI)*%
X101540000Y-115420000D03*
%TD*%
D16*
%TO.N,Net-(J1-Pin_3)*%
X128040000Y-104960000D02*
X88250000Y-104960000D01*
X128500000Y-104500000D02*
X128040000Y-104960000D01*
X128500000Y-101270000D02*
X128500000Y-104500000D01*
X127000000Y-99770000D02*
X128500000Y-101270000D01*
%TO.N,Net-(J1-Pin_2)*%
X74160000Y-98500000D02*
X73000000Y-97340000D01*
X125730000Y-98500000D02*
X74160000Y-98500000D01*
X127000000Y-97230000D02*
X125730000Y-98500000D01*
%TO.N,Net-(J1-Pin_4)*%
X88360000Y-102310000D02*
X88250000Y-102420000D01*
X127000000Y-102310000D02*
X88360000Y-102310000D01*
%TO.N,Net-(U1-PA5_A9_D9_MISO)*%
X83080000Y-112500000D02*
X117620000Y-112500000D01*
X73000000Y-102420000D02*
X83080000Y-112500000D01*
X117620000Y-112500000D02*
X120540000Y-115420000D01*
%TO.N,GND*%
X95190000Y-116990000D02*
X95190000Y-117960000D01*
X95190000Y-117960000D02*
X114190000Y-117960000D01*
X114190000Y-136960000D02*
X95190000Y-136960000D01*
X95190000Y-117960000D02*
X95190000Y-136960000D01*
X76190000Y-136960000D02*
X95190000Y-136960000D01*
X95190000Y-117960000D02*
X95040000Y-117960000D01*
X95040000Y-117960000D02*
X95000000Y-118000000D01*
%TD*%
M02*
