%TF.GenerationSoftware,KiCad,Pcbnew,9.0.6*%
%TF.CreationDate,2026-03-16T18:22:33-07:00*%
%TF.ProjectId,pro2,70726f32-2e6b-4696-9361-645f70636258,rev?*%
%TF.SameCoordinates,Original*%
%TF.FileFunction,Soldermask,Top*%
%TF.FilePolarity,Negative*%
%FSLAX46Y46*%
G04 Gerber Fmt 4.6, Leading zero omitted, Abs format (unit mm)*
G04 Created by KiCad (PCBNEW 9.0.6) date 2026-03-16 18:22:33*
%MOMM*%
%LPD*%
G01*
G04 APERTURE LIST*
%ADD10C,1.700000*%
%ADD11C,4.000000*%
%ADD12C,2.200000*%
%ADD13O,1.700000X1.700000*%
%ADD14R,1.700000X1.700000*%
%ADD15O,3.700000X1.700000*%
%ADD16O,3.600000X1.700000*%
%ADD17R,3.500000X1.700000*%
G04 APERTURE END LIST*
D10*
%TO.C,SW2*%
X112920000Y-120500000D03*
D11*
X118000000Y-120500000D03*
D10*
X123080000Y-120500000D03*
D12*
X120540000Y-115420000D03*
X114190000Y-117960000D03*
%TD*%
D10*
%TO.C,SW4*%
X93920000Y-139500000D03*
D11*
X99000000Y-139500000D03*
D10*
X104080000Y-139500000D03*
D12*
X101540000Y-134420000D03*
X95190000Y-136960000D03*
%TD*%
D10*
%TO.C,SW5*%
X112920000Y-139500000D03*
D11*
X118000000Y-139500000D03*
D10*
X123080000Y-139500000D03*
D12*
X120540000Y-134420000D03*
X114190000Y-136960000D03*
%TD*%
D10*
%TO.C,SW3*%
X74920000Y-139500000D03*
D11*
X80000000Y-139500000D03*
D10*
X85080000Y-139500000D03*
D12*
X82540000Y-134420000D03*
X76190000Y-136960000D03*
%TD*%
D13*
%TO.C,J1*%
X127000000Y-102310000D03*
X127000000Y-99770000D03*
X127000000Y-97230000D03*
D14*
X127000000Y-94690000D03*
%TD*%
D15*
%TO.C,U1*%
X72000000Y-92260000D03*
X72000000Y-94800000D03*
X72000000Y-97340000D03*
X72000000Y-99880000D03*
D16*
X72000000Y-102420000D03*
X72000000Y-104960000D03*
X72000000Y-107500000D03*
X89250000Y-107500000D03*
X89250000Y-104960000D03*
X89250000Y-102420000D03*
X89250000Y-99880000D03*
X89250000Y-97340000D03*
X89250000Y-94800000D03*
D17*
X89250000Y-92260000D03*
%TD*%
D12*
%TO.C,SW1*%
X95190000Y-117960000D03*
X101540000Y-115420000D03*
D10*
X104080000Y-120500000D03*
D11*
X99000000Y-120500000D03*
D10*
X93920000Y-120500000D03*
%TD*%
M02*
