%TF.GenerationSoftware,KiCad,Pcbnew,9.0.6*%
%TF.CreationDate,2026-03-16T18:22:33-07:00*%
%TF.ProjectId,pro2,70726f32-2e6b-4696-9361-645f70636258,rev?*%
%TF.SameCoordinates,Original*%
%TF.FileFunction,Legend,Top*%
%TF.FilePolarity,Positive*%
%FSLAX46Y46*%
G04 Gerber Fmt 4.6, Leading zero omitted, Abs format (unit mm)*
G04 Created by KiCad (PCBNEW 9.0.6) date 2026-03-16 18:22:33*
%MOMM*%
%LPD*%
G01*
G04 APERTURE LIST*
%ADD10C,0.150000*%
%ADD11C,0.120000*%
%ADD12C,0.040000*%
G04 APERTURE END LIST*
D10*
X116666667Y-113033200D02*
X116809524Y-113080819D01*
X116809524Y-113080819D02*
X117047619Y-113080819D01*
X117047619Y-113080819D02*
X117142857Y-113033200D01*
X117142857Y-113033200D02*
X117190476Y-112985580D01*
X117190476Y-112985580D02*
X117238095Y-112890342D01*
X117238095Y-112890342D02*
X117238095Y-112795104D01*
X117238095Y-112795104D02*
X117190476Y-112699866D01*
X117190476Y-112699866D02*
X117142857Y-112652247D01*
X117142857Y-112652247D02*
X117047619Y-112604628D01*
X117047619Y-112604628D02*
X116857143Y-112557009D01*
X116857143Y-112557009D02*
X116761905Y-112509390D01*
X116761905Y-112509390D02*
X116714286Y-112461771D01*
X116714286Y-112461771D02*
X116666667Y-112366533D01*
X116666667Y-112366533D02*
X116666667Y-112271295D01*
X116666667Y-112271295D02*
X116714286Y-112176057D01*
X116714286Y-112176057D02*
X116761905Y-112128438D01*
X116761905Y-112128438D02*
X116857143Y-112080819D01*
X116857143Y-112080819D02*
X117095238Y-112080819D01*
X117095238Y-112080819D02*
X117238095Y-112128438D01*
X117571429Y-112080819D02*
X117809524Y-113080819D01*
X117809524Y-113080819D02*
X118000000Y-112366533D01*
X118000000Y-112366533D02*
X118190476Y-113080819D01*
X118190476Y-113080819D02*
X118428572Y-112080819D01*
X118761905Y-112176057D02*
X118809524Y-112128438D01*
X118809524Y-112128438D02*
X118904762Y-112080819D01*
X118904762Y-112080819D02*
X119142857Y-112080819D01*
X119142857Y-112080819D02*
X119238095Y-112128438D01*
X119238095Y-112128438D02*
X119285714Y-112176057D01*
X119285714Y-112176057D02*
X119333333Y-112271295D01*
X119333333Y-112271295D02*
X119333333Y-112366533D01*
X119333333Y-112366533D02*
X119285714Y-112509390D01*
X119285714Y-112509390D02*
X118714286Y-113080819D01*
X118714286Y-113080819D02*
X119333333Y-113080819D01*
X97666667Y-132033200D02*
X97809524Y-132080819D01*
X97809524Y-132080819D02*
X98047619Y-132080819D01*
X98047619Y-132080819D02*
X98142857Y-132033200D01*
X98142857Y-132033200D02*
X98190476Y-131985580D01*
X98190476Y-131985580D02*
X98238095Y-131890342D01*
X98238095Y-131890342D02*
X98238095Y-131795104D01*
X98238095Y-131795104D02*
X98190476Y-131699866D01*
X98190476Y-131699866D02*
X98142857Y-131652247D01*
X98142857Y-131652247D02*
X98047619Y-131604628D01*
X98047619Y-131604628D02*
X97857143Y-131557009D01*
X97857143Y-131557009D02*
X97761905Y-131509390D01*
X97761905Y-131509390D02*
X97714286Y-131461771D01*
X97714286Y-131461771D02*
X97666667Y-131366533D01*
X97666667Y-131366533D02*
X97666667Y-131271295D01*
X97666667Y-131271295D02*
X97714286Y-131176057D01*
X97714286Y-131176057D02*
X97761905Y-131128438D01*
X97761905Y-131128438D02*
X97857143Y-131080819D01*
X97857143Y-131080819D02*
X98095238Y-131080819D01*
X98095238Y-131080819D02*
X98238095Y-131128438D01*
X98571429Y-131080819D02*
X98809524Y-132080819D01*
X98809524Y-132080819D02*
X99000000Y-131366533D01*
X99000000Y-131366533D02*
X99190476Y-132080819D01*
X99190476Y-132080819D02*
X99428572Y-131080819D01*
X100238095Y-131414152D02*
X100238095Y-132080819D01*
X100000000Y-131033200D02*
X99761905Y-131747485D01*
X99761905Y-131747485D02*
X100380952Y-131747485D01*
X116666667Y-132033200D02*
X116809524Y-132080819D01*
X116809524Y-132080819D02*
X117047619Y-132080819D01*
X117047619Y-132080819D02*
X117142857Y-132033200D01*
X117142857Y-132033200D02*
X117190476Y-131985580D01*
X117190476Y-131985580D02*
X117238095Y-131890342D01*
X117238095Y-131890342D02*
X117238095Y-131795104D01*
X117238095Y-131795104D02*
X117190476Y-131699866D01*
X117190476Y-131699866D02*
X117142857Y-131652247D01*
X117142857Y-131652247D02*
X117047619Y-131604628D01*
X117047619Y-131604628D02*
X116857143Y-131557009D01*
X116857143Y-131557009D02*
X116761905Y-131509390D01*
X116761905Y-131509390D02*
X116714286Y-131461771D01*
X116714286Y-131461771D02*
X116666667Y-131366533D01*
X116666667Y-131366533D02*
X116666667Y-131271295D01*
X116666667Y-131271295D02*
X116714286Y-131176057D01*
X116714286Y-131176057D02*
X116761905Y-131128438D01*
X116761905Y-131128438D02*
X116857143Y-131080819D01*
X116857143Y-131080819D02*
X117095238Y-131080819D01*
X117095238Y-131080819D02*
X117238095Y-131128438D01*
X117571429Y-131080819D02*
X117809524Y-132080819D01*
X117809524Y-132080819D02*
X118000000Y-131366533D01*
X118000000Y-131366533D02*
X118190476Y-132080819D01*
X118190476Y-132080819D02*
X118428572Y-131080819D01*
X119285714Y-131080819D02*
X118809524Y-131080819D01*
X118809524Y-131080819D02*
X118761905Y-131557009D01*
X118761905Y-131557009D02*
X118809524Y-131509390D01*
X118809524Y-131509390D02*
X118904762Y-131461771D01*
X118904762Y-131461771D02*
X119142857Y-131461771D01*
X119142857Y-131461771D02*
X119238095Y-131509390D01*
X119238095Y-131509390D02*
X119285714Y-131557009D01*
X119285714Y-131557009D02*
X119333333Y-131652247D01*
X119333333Y-131652247D02*
X119333333Y-131890342D01*
X119333333Y-131890342D02*
X119285714Y-131985580D01*
X119285714Y-131985580D02*
X119238095Y-132033200D01*
X119238095Y-132033200D02*
X119142857Y-132080819D01*
X119142857Y-132080819D02*
X118904762Y-132080819D01*
X118904762Y-132080819D02*
X118809524Y-132033200D01*
X118809524Y-132033200D02*
X118761905Y-131985580D01*
X78666667Y-132033200D02*
X78809524Y-132080819D01*
X78809524Y-132080819D02*
X79047619Y-132080819D01*
X79047619Y-132080819D02*
X79142857Y-132033200D01*
X79142857Y-132033200D02*
X79190476Y-131985580D01*
X79190476Y-131985580D02*
X79238095Y-131890342D01*
X79238095Y-131890342D02*
X79238095Y-131795104D01*
X79238095Y-131795104D02*
X79190476Y-131699866D01*
X79190476Y-131699866D02*
X79142857Y-131652247D01*
X79142857Y-131652247D02*
X79047619Y-131604628D01*
X79047619Y-131604628D02*
X78857143Y-131557009D01*
X78857143Y-131557009D02*
X78761905Y-131509390D01*
X78761905Y-131509390D02*
X78714286Y-131461771D01*
X78714286Y-131461771D02*
X78666667Y-131366533D01*
X78666667Y-131366533D02*
X78666667Y-131271295D01*
X78666667Y-131271295D02*
X78714286Y-131176057D01*
X78714286Y-131176057D02*
X78761905Y-131128438D01*
X78761905Y-131128438D02*
X78857143Y-131080819D01*
X78857143Y-131080819D02*
X79095238Y-131080819D01*
X79095238Y-131080819D02*
X79238095Y-131128438D01*
X79571429Y-131080819D02*
X79809524Y-132080819D01*
X79809524Y-132080819D02*
X80000000Y-131366533D01*
X80000000Y-131366533D02*
X80190476Y-132080819D01*
X80190476Y-132080819D02*
X80428572Y-131080819D01*
X80714286Y-131080819D02*
X81333333Y-131080819D01*
X81333333Y-131080819D02*
X81000000Y-131461771D01*
X81000000Y-131461771D02*
X81142857Y-131461771D01*
X81142857Y-131461771D02*
X81238095Y-131509390D01*
X81238095Y-131509390D02*
X81285714Y-131557009D01*
X81285714Y-131557009D02*
X81333333Y-131652247D01*
X81333333Y-131652247D02*
X81333333Y-131890342D01*
X81333333Y-131890342D02*
X81285714Y-131985580D01*
X81285714Y-131985580D02*
X81238095Y-132033200D01*
X81238095Y-132033200D02*
X81142857Y-132080819D01*
X81142857Y-132080819D02*
X80857143Y-132080819D01*
X80857143Y-132080819D02*
X80761905Y-132033200D01*
X80761905Y-132033200D02*
X80714286Y-131985580D01*
X91854819Y-98743333D02*
X92569104Y-98743333D01*
X92569104Y-98743333D02*
X92711961Y-98790952D01*
X92711961Y-98790952D02*
X92807200Y-98886190D01*
X92807200Y-98886190D02*
X92854819Y-99029047D01*
X92854819Y-99029047D02*
X92854819Y-99124285D01*
X92854819Y-97743333D02*
X92854819Y-98314761D01*
X92854819Y-98029047D02*
X91854819Y-98029047D01*
X91854819Y-98029047D02*
X91997676Y-98124285D01*
X91997676Y-98124285D02*
X92092914Y-98219523D01*
X92092914Y-98219523D02*
X92140533Y-98314761D01*
X125303450Y-103220713D02*
X125339164Y-103113571D01*
X125339164Y-103113571D02*
X125339164Y-102934999D01*
X125339164Y-102934999D02*
X125303450Y-102863571D01*
X125303450Y-102863571D02*
X125267735Y-102827856D01*
X125267735Y-102827856D02*
X125196307Y-102792142D01*
X125196307Y-102792142D02*
X125124878Y-102792142D01*
X125124878Y-102792142D02*
X125053450Y-102827856D01*
X125053450Y-102827856D02*
X125017735Y-102863571D01*
X125017735Y-102863571D02*
X124982021Y-102934999D01*
X124982021Y-102934999D02*
X124946307Y-103077856D01*
X124946307Y-103077856D02*
X124910592Y-103149285D01*
X124910592Y-103149285D02*
X124874878Y-103184999D01*
X124874878Y-103184999D02*
X124803450Y-103220713D01*
X124803450Y-103220713D02*
X124732021Y-103220713D01*
X124732021Y-103220713D02*
X124660592Y-103184999D01*
X124660592Y-103184999D02*
X124624878Y-103149285D01*
X124624878Y-103149285D02*
X124589164Y-103077856D01*
X124589164Y-103077856D02*
X124589164Y-102899285D01*
X124589164Y-102899285D02*
X124624878Y-102792142D01*
X125339164Y-102470713D02*
X124589164Y-102470713D01*
X124589164Y-102470713D02*
X124589164Y-102292142D01*
X124589164Y-102292142D02*
X124624878Y-102184999D01*
X124624878Y-102184999D02*
X124696307Y-102113570D01*
X124696307Y-102113570D02*
X124767735Y-102077856D01*
X124767735Y-102077856D02*
X124910592Y-102042142D01*
X124910592Y-102042142D02*
X125017735Y-102042142D01*
X125017735Y-102042142D02*
X125160592Y-102077856D01*
X125160592Y-102077856D02*
X125232021Y-102113570D01*
X125232021Y-102113570D02*
X125303450Y-102184999D01*
X125303450Y-102184999D02*
X125339164Y-102292142D01*
X125339164Y-102292142D02*
X125339164Y-102470713D01*
X125124878Y-101756427D02*
X125124878Y-101399285D01*
X125339164Y-101827856D02*
X124589164Y-101577856D01*
X124589164Y-101577856D02*
X125339164Y-101327856D01*
X124624878Y-95261428D02*
X124589164Y-95332857D01*
X124589164Y-95332857D02*
X124589164Y-95439999D01*
X124589164Y-95439999D02*
X124624878Y-95547142D01*
X124624878Y-95547142D02*
X124696307Y-95618571D01*
X124696307Y-95618571D02*
X124767735Y-95654285D01*
X124767735Y-95654285D02*
X124910592Y-95689999D01*
X124910592Y-95689999D02*
X125017735Y-95689999D01*
X125017735Y-95689999D02*
X125160592Y-95654285D01*
X125160592Y-95654285D02*
X125232021Y-95618571D01*
X125232021Y-95618571D02*
X125303450Y-95547142D01*
X125303450Y-95547142D02*
X125339164Y-95439999D01*
X125339164Y-95439999D02*
X125339164Y-95368571D01*
X125339164Y-95368571D02*
X125303450Y-95261428D01*
X125303450Y-95261428D02*
X125267735Y-95225714D01*
X125267735Y-95225714D02*
X125017735Y-95225714D01*
X125017735Y-95225714D02*
X125017735Y-95368571D01*
X125339164Y-94904285D02*
X124589164Y-94904285D01*
X124589164Y-94904285D02*
X125339164Y-94475714D01*
X125339164Y-94475714D02*
X124589164Y-94475714D01*
X125339164Y-94118571D02*
X124589164Y-94118571D01*
X124589164Y-94118571D02*
X124589164Y-93940000D01*
X124589164Y-93940000D02*
X124624878Y-93832857D01*
X124624878Y-93832857D02*
X124696307Y-93761428D01*
X124696307Y-93761428D02*
X124767735Y-93725714D01*
X124767735Y-93725714D02*
X124910592Y-93690000D01*
X124910592Y-93690000D02*
X125017735Y-93690000D01*
X125017735Y-93690000D02*
X125160592Y-93725714D01*
X125160592Y-93725714D02*
X125232021Y-93761428D01*
X125232021Y-93761428D02*
X125303450Y-93832857D01*
X125303450Y-93832857D02*
X125339164Y-93940000D01*
X125339164Y-93940000D02*
X125339164Y-94118571D01*
X125303450Y-100662856D02*
X125339164Y-100555714D01*
X125339164Y-100555714D02*
X125339164Y-100377142D01*
X125339164Y-100377142D02*
X125303450Y-100305714D01*
X125303450Y-100305714D02*
X125267735Y-100269999D01*
X125267735Y-100269999D02*
X125196307Y-100234285D01*
X125196307Y-100234285D02*
X125124878Y-100234285D01*
X125124878Y-100234285D02*
X125053450Y-100269999D01*
X125053450Y-100269999D02*
X125017735Y-100305714D01*
X125017735Y-100305714D02*
X124982021Y-100377142D01*
X124982021Y-100377142D02*
X124946307Y-100519999D01*
X124946307Y-100519999D02*
X124910592Y-100591428D01*
X124910592Y-100591428D02*
X124874878Y-100627142D01*
X124874878Y-100627142D02*
X124803450Y-100662856D01*
X124803450Y-100662856D02*
X124732021Y-100662856D01*
X124732021Y-100662856D02*
X124660592Y-100627142D01*
X124660592Y-100627142D02*
X124624878Y-100591428D01*
X124624878Y-100591428D02*
X124589164Y-100519999D01*
X124589164Y-100519999D02*
X124589164Y-100341428D01*
X124589164Y-100341428D02*
X124624878Y-100234285D01*
X125267735Y-99484285D02*
X125303450Y-99519999D01*
X125303450Y-99519999D02*
X125339164Y-99627142D01*
X125339164Y-99627142D02*
X125339164Y-99698570D01*
X125339164Y-99698570D02*
X125303450Y-99805713D01*
X125303450Y-99805713D02*
X125232021Y-99877142D01*
X125232021Y-99877142D02*
X125160592Y-99912856D01*
X125160592Y-99912856D02*
X125017735Y-99948570D01*
X125017735Y-99948570D02*
X124910592Y-99948570D01*
X124910592Y-99948570D02*
X124767735Y-99912856D01*
X124767735Y-99912856D02*
X124696307Y-99877142D01*
X124696307Y-99877142D02*
X124624878Y-99805713D01*
X124624878Y-99805713D02*
X124589164Y-99698570D01*
X124589164Y-99698570D02*
X124589164Y-99627142D01*
X124589164Y-99627142D02*
X124624878Y-99519999D01*
X124624878Y-99519999D02*
X124660592Y-99484285D01*
X125339164Y-98805713D02*
X125339164Y-99162856D01*
X125339164Y-99162856D02*
X124589164Y-99162856D01*
X124589164Y-98229999D02*
X125339164Y-97979999D01*
X125339164Y-97979999D02*
X124589164Y-97729999D01*
X125267735Y-97051428D02*
X125303450Y-97087142D01*
X125303450Y-97087142D02*
X125339164Y-97194285D01*
X125339164Y-97194285D02*
X125339164Y-97265713D01*
X125339164Y-97265713D02*
X125303450Y-97372856D01*
X125303450Y-97372856D02*
X125232021Y-97444285D01*
X125232021Y-97444285D02*
X125160592Y-97479999D01*
X125160592Y-97479999D02*
X125017735Y-97515713D01*
X125017735Y-97515713D02*
X124910592Y-97515713D01*
X124910592Y-97515713D02*
X124767735Y-97479999D01*
X124767735Y-97479999D02*
X124696307Y-97444285D01*
X124696307Y-97444285D02*
X124624878Y-97372856D01*
X124624878Y-97372856D02*
X124589164Y-97265713D01*
X124589164Y-97265713D02*
X124589164Y-97194285D01*
X124589164Y-97194285D02*
X124624878Y-97087142D01*
X124624878Y-97087142D02*
X124660592Y-97051428D01*
X125267735Y-96301428D02*
X125303450Y-96337142D01*
X125303450Y-96337142D02*
X125339164Y-96444285D01*
X125339164Y-96444285D02*
X125339164Y-96515713D01*
X125339164Y-96515713D02*
X125303450Y-96622856D01*
X125303450Y-96622856D02*
X125232021Y-96694285D01*
X125232021Y-96694285D02*
X125160592Y-96729999D01*
X125160592Y-96729999D02*
X125017735Y-96765713D01*
X125017735Y-96765713D02*
X124910592Y-96765713D01*
X124910592Y-96765713D02*
X124767735Y-96729999D01*
X124767735Y-96729999D02*
X124696307Y-96694285D01*
X124696307Y-96694285D02*
X124624878Y-96622856D01*
X124624878Y-96622856D02*
X124589164Y-96515713D01*
X124589164Y-96515713D02*
X124589164Y-96444285D01*
X124589164Y-96444285D02*
X124624878Y-96337142D01*
X124624878Y-96337142D02*
X124660592Y-96301428D01*
X105456428Y-97839819D02*
X105646904Y-97839819D01*
X105646904Y-97839819D02*
X105742142Y-97887438D01*
X105742142Y-97887438D02*
X105837380Y-97982676D01*
X105837380Y-97982676D02*
X105884999Y-98173152D01*
X105884999Y-98173152D02*
X105884999Y-98506485D01*
X105884999Y-98506485D02*
X105837380Y-98696961D01*
X105837380Y-98696961D02*
X105742142Y-98792200D01*
X105742142Y-98792200D02*
X105646904Y-98839819D01*
X105646904Y-98839819D02*
X105456428Y-98839819D01*
X105456428Y-98839819D02*
X105361190Y-98792200D01*
X105361190Y-98792200D02*
X105265952Y-98696961D01*
X105265952Y-98696961D02*
X105218333Y-98506485D01*
X105218333Y-98506485D02*
X105218333Y-98173152D01*
X105218333Y-98173152D02*
X105265952Y-97982676D01*
X105265952Y-97982676D02*
X105361190Y-97887438D01*
X105361190Y-97887438D02*
X105456428Y-97839819D01*
X106789761Y-98839819D02*
X106313571Y-98839819D01*
X106313571Y-98839819D02*
X106313571Y-97839819D01*
X107123095Y-98316009D02*
X107456428Y-98316009D01*
X107599285Y-98839819D02*
X107123095Y-98839819D01*
X107123095Y-98839819D02*
X107123095Y-97839819D01*
X107123095Y-97839819D02*
X107599285Y-97839819D01*
X108027857Y-98839819D02*
X108027857Y-97839819D01*
X108027857Y-97839819D02*
X108265952Y-97839819D01*
X108265952Y-97839819D02*
X108408809Y-97887438D01*
X108408809Y-97887438D02*
X108504047Y-97982676D01*
X108504047Y-97982676D02*
X108551666Y-98077914D01*
X108551666Y-98077914D02*
X108599285Y-98268390D01*
X108599285Y-98268390D02*
X108599285Y-98411247D01*
X108599285Y-98411247D02*
X108551666Y-98601723D01*
X108551666Y-98601723D02*
X108504047Y-98696961D01*
X108504047Y-98696961D02*
X108408809Y-98792200D01*
X108408809Y-98792200D02*
X108265952Y-98839819D01*
X108265952Y-98839819D02*
X108027857Y-98839819D01*
X109789762Y-98839819D02*
X109789762Y-97839819D01*
X109789762Y-97839819D02*
X110170714Y-97839819D01*
X110170714Y-97839819D02*
X110265952Y-97887438D01*
X110265952Y-97887438D02*
X110313571Y-97935057D01*
X110313571Y-97935057D02*
X110361190Y-98030295D01*
X110361190Y-98030295D02*
X110361190Y-98173152D01*
X110361190Y-98173152D02*
X110313571Y-98268390D01*
X110313571Y-98268390D02*
X110265952Y-98316009D01*
X110265952Y-98316009D02*
X110170714Y-98363628D01*
X110170714Y-98363628D02*
X109789762Y-98363628D01*
X111218333Y-98839819D02*
X111218333Y-98316009D01*
X111218333Y-98316009D02*
X111170714Y-98220771D01*
X111170714Y-98220771D02*
X111075476Y-98173152D01*
X111075476Y-98173152D02*
X110885000Y-98173152D01*
X110885000Y-98173152D02*
X110789762Y-98220771D01*
X111218333Y-98792200D02*
X111123095Y-98839819D01*
X111123095Y-98839819D02*
X110885000Y-98839819D01*
X110885000Y-98839819D02*
X110789762Y-98792200D01*
X110789762Y-98792200D02*
X110742143Y-98696961D01*
X110742143Y-98696961D02*
X110742143Y-98601723D01*
X110742143Y-98601723D02*
X110789762Y-98506485D01*
X110789762Y-98506485D02*
X110885000Y-98458866D01*
X110885000Y-98458866D02*
X111123095Y-98458866D01*
X111123095Y-98458866D02*
X111218333Y-98411247D01*
X111694524Y-98173152D02*
X111694524Y-98839819D01*
X111694524Y-98268390D02*
X111742143Y-98220771D01*
X111742143Y-98220771D02*
X111837381Y-98173152D01*
X111837381Y-98173152D02*
X111980238Y-98173152D01*
X111980238Y-98173152D02*
X112075476Y-98220771D01*
X112075476Y-98220771D02*
X112123095Y-98316009D01*
X112123095Y-98316009D02*
X112123095Y-98839819D01*
X112980238Y-98792200D02*
X112885000Y-98839819D01*
X112885000Y-98839819D02*
X112694524Y-98839819D01*
X112694524Y-98839819D02*
X112599286Y-98792200D01*
X112599286Y-98792200D02*
X112551667Y-98696961D01*
X112551667Y-98696961D02*
X112551667Y-98316009D01*
X112551667Y-98316009D02*
X112599286Y-98220771D01*
X112599286Y-98220771D02*
X112694524Y-98173152D01*
X112694524Y-98173152D02*
X112885000Y-98173152D01*
X112885000Y-98173152D02*
X112980238Y-98220771D01*
X112980238Y-98220771D02*
X113027857Y-98316009D01*
X113027857Y-98316009D02*
X113027857Y-98411247D01*
X113027857Y-98411247D02*
X112551667Y-98506485D01*
X113599286Y-98839819D02*
X113504048Y-98792200D01*
X113504048Y-98792200D02*
X113456429Y-98696961D01*
X113456429Y-98696961D02*
X113456429Y-97839819D01*
X97666667Y-113033200D02*
X97809524Y-113080819D01*
X97809524Y-113080819D02*
X98047619Y-113080819D01*
X98047619Y-113080819D02*
X98142857Y-113033200D01*
X98142857Y-113033200D02*
X98190476Y-112985580D01*
X98190476Y-112985580D02*
X98238095Y-112890342D01*
X98238095Y-112890342D02*
X98238095Y-112795104D01*
X98238095Y-112795104D02*
X98190476Y-112699866D01*
X98190476Y-112699866D02*
X98142857Y-112652247D01*
X98142857Y-112652247D02*
X98047619Y-112604628D01*
X98047619Y-112604628D02*
X97857143Y-112557009D01*
X97857143Y-112557009D02*
X97761905Y-112509390D01*
X97761905Y-112509390D02*
X97714286Y-112461771D01*
X97714286Y-112461771D02*
X97666667Y-112366533D01*
X97666667Y-112366533D02*
X97666667Y-112271295D01*
X97666667Y-112271295D02*
X97714286Y-112176057D01*
X97714286Y-112176057D02*
X97761905Y-112128438D01*
X97761905Y-112128438D02*
X97857143Y-112080819D01*
X97857143Y-112080819D02*
X98095238Y-112080819D01*
X98095238Y-112080819D02*
X98238095Y-112128438D01*
X98571429Y-112080819D02*
X98809524Y-113080819D01*
X98809524Y-113080819D02*
X99000000Y-112366533D01*
X99000000Y-112366533D02*
X99190476Y-113080819D01*
X99190476Y-113080819D02*
X99428572Y-112080819D01*
X100333333Y-113080819D02*
X99761905Y-113080819D01*
X100047619Y-113080819D02*
X100047619Y-112080819D01*
X100047619Y-112080819D02*
X99952381Y-112223676D01*
X99952381Y-112223676D02*
X99857143Y-112318914D01*
X99857143Y-112318914D02*
X99761905Y-112366533D01*
D11*
%TO.C,SW2*%
X111015000Y-113515000D02*
X124985000Y-113515000D01*
X111015000Y-127485000D02*
X111015000Y-113515000D01*
X124985000Y-113515000D02*
X124985000Y-127485000D01*
X124985000Y-127485000D02*
X111015000Y-127485000D01*
%TO.C,SW4*%
X92015000Y-132515000D02*
X105985000Y-132515000D01*
X92015000Y-146485000D02*
X92015000Y-132515000D01*
X105985000Y-132515000D02*
X105985000Y-146485000D01*
X105985000Y-146485000D02*
X92015000Y-146485000D01*
%TO.C,SW5*%
X111015000Y-132515000D02*
X124985000Y-132515000D01*
X111015000Y-146485000D02*
X111015000Y-132515000D01*
X124985000Y-132515000D02*
X124985000Y-146485000D01*
X124985000Y-146485000D02*
X111015000Y-146485000D01*
%TO.C,SW3*%
X73015000Y-132515000D02*
X86985000Y-132515000D01*
X73015000Y-146485000D02*
X73015000Y-132515000D01*
X86985000Y-132515000D02*
X86985000Y-146485000D01*
X86985000Y-146485000D02*
X73015000Y-146485000D01*
D12*
%TO.C,J1*%
X128500000Y-104500000D02*
X128500000Y-92500000D01*
X128500000Y-92500000D02*
X90500000Y-92500000D01*
X123500000Y-92500000D02*
X123500000Y-104500000D01*
X94000000Y-92500000D02*
X94000000Y-104500000D01*
X90500000Y-104500000D02*
X128500000Y-104500000D01*
X90500000Y-92500000D02*
X90500000Y-104500000D01*
D11*
%TO.C,SW1*%
X105985000Y-127485000D02*
X92015000Y-127485000D01*
X105985000Y-113515000D02*
X105985000Y-127485000D01*
X92015000Y-127485000D02*
X92015000Y-113515000D01*
X92015000Y-113515000D02*
X105985000Y-113515000D01*
%TD*%
M02*
